<svg width="116" height="116" viewBox="0 0 116 116" fill="none" xmlns="http://www.w3.org/2000/svg">
<path fill-rule="evenodd" clip-rule="evenodd" d="M0 0H104C110.6 0 116 0 116 0V104C116 110.6 116 116 116 116H12C5.4 116 0 116 0 116V12C0 5.4 0 0 0 0Z" fill="#A28BDE"/>
<path fill-rule="evenodd" clip-rule="evenodd" d="M80.1999 56.6C80.1999 30.6 63.7 8.4 40.5 0H55.2999C59.5999 2.7 63.4999 5.8 67.1999 9.4C73.2999 15.5 78.1 22.7 81.5 30.6C85 38.8 86.6999 47.5 86.6999 56.5C86.6999 65.5 85 74.3 81.5 82.5C78.1 90.4 73.2999 97.6 67.1999 103.7C62.1999 108.7 56.5 112.8 50.2 116H29.2C58.1 111.6 80.1999 86.7 80.1999 56.6Z" fill="#544486"/>
<path opacity="0.5" d="M45.9001 17.3C23.1001 17.3 4.6001 35.8 4.6001 58.6C4.6001 81.4 23.1001 99.9001 45.9001 99.9001C68.7001 99.9001 87.2001 81.4 87.2001 58.6C87.2001 35.8 68.7001 17.3 45.9001 17.3Z" fill="#544486"/>
<path d="M47.5 48.6C46.4 45.9 44.8 43.6 42.7 41.5C40.7 39.5 38.3 37.8 35.6 36.7C32.9 35.5 30 35 26.9 35C23.8 35 21 35.6 18.2 36.8C15.5 37.9 13.2 39.5 11.1 41.6C9.1 43.6 7.4 46 6.3 48.7C5.1 51.4 4.5 54.4 4.5 57.4C4.5 60.4 5.1 63.3 6.3 66.1C7.4 68.8 9 71.1 11.1 73.2C13.1 75.2 15.5 76.9 18.2 78C20.9 79.2 23.9 79.8 26.9 79.8C29.9 79.8 32.8 79.2 35.6 78C38.3 76.9 40.6 75.3 42.7 73.2C44.7 71.2 46.4 68.8 47.5 66.1C48.7 63.4 49.3 60.4 49.3 57.4C49.3 54.4 48.6 51.3 47.5 48.6ZM27.4 73.8C18.3 73.8 11 66.5 11 57.4C11 48.3 18.3 41 27.4 41C36.5 41 43.8 48.3 43.8 57.4C43.8 66.5 36.4 73.8 27.4 73.8Z" fill="#544486"/>
<path d="M45.9 23.9C26.7 23.9 11.1 39.5 11.1 58.7C11.1 77.9 26.7 93.5 45.9 93.5C65.1 93.5 80.7 77.9 80.7 58.7C80.7 39.5 65.1 23.9 45.9 23.9ZM45.9 17.4C51.5 17.4 56.9 18.5 61.9 20.6C66.8 22.7 71.2 25.6 75 29.4C78.8 33.2 81.8 37.6 83.8 42.5C85.9 47.6 87 53 87 58.5C87 64 85.9 69.5 83.8 74.5C81.7 79.4 78.8 83.8 75 87.6C71.2 91.4 66.8 94.4 61.9 96.4C56.8 98.5 51.4 99.6 45.9 99.6C40.4 99.6 34.9 98.5 29.9 96.4C25 94.3 20.6 91.4 16.8 87.6C13 84 9.99995 79.6 7.89995 74.7C5.79995 69.6 4.69995 64.2 4.69995 58.7C4.69995 53.2 5.79995 47.7 7.89995 42.7C9.99995 37.8 12.9 33.4 16.7 29.6C20.5 25.8 24.8999 22.8 29.7999 20.8C34.8999 18.5 40.3 17.4 45.9 17.4Z" fill="#544486"/>
</svg>
