<svg xmlns="http://www.w3.org/2000/svg" width="9" height="9">
  <g id="Group_216" data-name="Group 216" transform="translate(-116 -480)">
    <rect id="error_base" data-name="error base" width="9" height="9" rx="2" transform="translate(116 480)" fill="#ff4848"/>
    <path id="Path_19" data-name="Path 19" d="M3.2 2.5L4.8.9a.8.8 0 00.1-.8c-.1-.2-.6-.1-.8 0L2.5 1.8.9.1a1.1 1.1 0 00-.8 0C-.1.2 0 .7.1.9l1.6 1.6L.1 4.1a1.1 1.1 0 000 .8.6.6 0 00.4.1.6.6 0 00.4-.1l1.6-1.6 1.6 1.6a.6.6 0 00.4.1.6.6 0 00.4-.1 1.1 1.1 0 000-.8z" transform="translate(118 482)" fill="#fff"/>
  </g>
</svg>
