<svg 
 xmlns="http://www.w3.org/2000/svg"
 xmlns:xlink="http://www.w3.org/1999/xlink"
 width="18px" height="18px">
<path fill-rule="evenodd"  fill="rgb(92, 99, 125)"
 d="M9.000,-0.000 C4.020,-0.000 -0.000,4.030 -0.000,9.000 C-0.000,13.980 4.020,18.000 9.000,18.000 C13.980,18.000 18.000,13.980 18.000,9.000 C18.000,4.030 13.980,-0.000 9.000,-0.000 ZM11.960,10.550 C12.350,10.940 12.350,11.570 11.960,11.960 C11.760,12.160 11.510,12.250 11.250,12.250 C10.990,12.250 10.740,12.160 10.540,11.960 L9.000,10.420 L7.460,11.960 C7.260,12.160 7.010,12.250 6.750,12.250 C6.490,12.250 6.240,12.160 6.040,11.960 C5.650,11.570 5.650,10.940 6.040,10.550 L7.590,9.000 L6.040,7.460 C5.650,7.070 5.650,6.440 6.040,6.050 C6.430,5.660 7.070,5.660 7.460,6.050 L9.000,7.590 L10.540,6.050 C10.930,5.660 11.570,5.660 11.960,6.050 C12.350,6.440 12.350,7.070 11.960,7.460 L10.410,9.000 L11.960,10.550 Z"/>
</svg>