<svg xmlns="http://www.w3.org/2000/svg" width="13" height="13" viewBox="0 0 13 13">
  <path id="Path_8" data-name="Path 8" d="M11.64,0H4.79A1.361,1.361,0,0,0,3.43,1.36V3.43H1.5A1.5,1.5,0,0,0,0,4.93V11.5A1.5,1.5,0,0,0,1.5,13H8.07a1.5,1.5,0,0,0,1.5-1.5V9.57h2.07A1.361,1.361,0,0,0,13,8.21V1.36A1.361,1.361,0,0,0,11.64,0ZM8.57,11.5a.5.5,0,0,1-.5.5H1.5a.5.5,0,0,1-.5-.5V4.93a.5.5,0,0,1,.5-.5H8.07a.5.5,0,0,1,.5.5ZM12,8.21a.365.365,0,0,1-.36.36H9.57V4.93a1.5,1.5,0,0,0-1.5-1.5H4.43V1.36A.359.359,0,0,1,4.79,1h6.86a.356.356,0,0,1,.35.36Z" fill="#4d66cd"/>
</svg>
