<svg 
 xmlns="http://www.w3.org/2000/svg"
 xmlns:xlink="http://www.w3.org/1999/xlink"
 width="19px" height="18px">
<path fill-rule="evenodd"  opacity="0.502" fill="rgb(255, 255, 255)"
 d="M18.000,18.000 L1.000,18.000 C0.448,18.000 -0.000,17.553 -0.000,17.000 C-0.000,16.447 0.448,16.000 1.000,16.000 L18.000,16.000 C18.552,16.000 19.000,16.447 19.000,17.000 C19.000,17.553 18.552,18.000 18.000,18.000 ZM6.675,13.707 C6.487,13.894 6.233,14.000 5.968,14.000 L3.000,14.000 C2.448,14.000 2.000,13.553 2.000,13.000 L2.000,10.031 C2.000,9.765 2.105,9.512 2.293,9.324 L11.324,0.293 C11.512,0.105 11.766,-0.000 12.031,-0.000 C12.297,-0.000 12.551,0.105 12.738,0.293 L15.707,3.262 C16.097,3.652 16.097,4.285 15.707,4.676 L6.675,13.707 ZM4.000,10.445 L4.000,12.000 L5.554,12.000 L10.617,6.937 L9.063,5.382 L4.000,10.445 ZM12.031,2.414 L10.477,3.968 L12.031,5.523 L13.586,3.969 L12.031,2.414 Z"/>
</svg>