<svg 
 xmlns="http://www.w3.org/2000/svg"
 xmlns:xlink="http://www.w3.org/1999/xlink"
 width="16px" height="18px">
<path fill-rule="evenodd" opacity="0.502" fill="rgb(255, 255, 255)"
 d="M15.000,5.000 L0.999,5.000 C0.447,5.000 -0.001,4.552 -0.001,4.000 C-0.001,3.447 0.447,3.000 0.999,3.000 L3.999,3.000 C3.999,1.345 5.345,-0.000 7.000,-0.000 L8.999,-0.000 C10.654,-0.000 12.000,1.345 12.000,3.000 L15.000,3.000 C15.552,3.000 15.999,3.447 15.999,4.000 C15.999,4.552 15.552,5.000 15.000,5.000 ZM8.999,2.000 L7.000,2.000 C6.448,2.000 6.000,2.448 6.000,3.000 L9.999,3.000 C9.999,2.448 9.551,2.000 8.999,2.000 ZM3.999,13.000 L3.999,8.000 C3.999,7.447 4.447,7.000 5.000,7.000 C5.552,7.000 6.000,7.447 6.000,8.000 L6.000,13.000 C6.000,13.553 5.552,14.000 5.000,14.000 C4.447,14.000 3.999,13.553 3.999,13.000 ZM7.000,14.000 L7.000,7.000 C7.000,6.447 7.447,6.000 8.000,6.000 C8.552,6.000 8.999,6.447 8.999,7.000 L8.999,14.000 C8.999,14.553 8.552,15.000 8.000,15.000 C7.447,15.000 7.000,14.553 7.000,14.000 ZM9.999,13.000 L9.999,8.000 C9.999,7.447 10.447,7.000 10.999,7.000 C11.552,7.000 12.000,7.447 12.000,8.000 L12.000,13.000 C12.000,13.553 11.552,14.000 10.999,14.000 C10.447,14.000 9.999,13.553 9.999,13.000 ZM1.999,6.000 C2.552,6.000 2.999,6.447 2.999,7.000 L2.999,14.527 C2.999,15.340 3.660,16.000 4.472,16.000 L11.527,16.000 C12.339,16.000 13.000,15.340 13.000,14.527 L13.000,7.000 C13.000,6.447 13.447,6.000 14.000,6.000 C14.552,6.000 15.000,6.447 15.000,7.000 L15.000,14.527 C15.000,16.442 13.442,18.000 11.527,18.000 L4.472,18.000 C2.557,18.000 0.999,16.442 0.999,14.527 L0.999,7.000 C0.999,6.447 1.447,6.000 1.999,6.000 Z"/>
</svg>