<svg 
 xmlns="http://www.w3.org/2000/svg"
 xmlns:xlink="http://www.w3.org/1999/xlink"
 width="18px" height="18px">
<path fill-rule="evenodd" fill="rgb(77, 102, 205)"
 d="M9.000,-0.000 C4.030,-0.000 -0.000,4.030 -0.000,9.000 C-0.000,13.970 4.030,18.000 9.000,18.000 C13.970,18.000 18.000,13.970 18.000,9.000 C18.000,4.030 13.970,-0.000 9.000,-0.000 ZM13.110,7.710 L9.110,11.710 C8.910,11.900 8.660,12.000 8.400,12.000 C8.140,12.000 7.890,11.900 7.690,11.710 L4.890,8.910 C4.500,8.520 4.500,7.880 4.890,7.490 C5.280,7.100 5.920,7.100 6.310,7.490 L8.400,9.590 L11.690,6.290 C12.080,5.900 12.720,5.900 13.110,6.290 C13.500,6.680 13.500,7.320 13.110,7.710 Z"/>
</svg>