<?xml version="1.0" encoding="utf-8"?>
<!-- Generator: Adobe Illustrator 21.0.0, SVG Export Plug-In . SVG Version: 6.00 Build 0)  -->
<svg version="1.1" id="Слой_1" xmlns="http://www.w3.org/2000/svg" xmlns:xlink="http://www.w3.org/1999/xlink" x="0px" y="0px"
	 viewBox="0 0 34 34" style="enable-background:new 0 0 34 34;" xml:space="preserve">
<style type="text/css">
	.st0{fill:#4F68CD;}
</style>
<path class="st0" d="M34,17c0-0.5,0-1-0.1-1.5C33.2,6.8,25.9,0,17,0C7.6,0,0,7.6,0,17s7.6,17,17,17c8.9,0,16.2-6.8,16.9-15.5
	C34,18,34,17.5,34,17z M19.6,29.4c-1.9,0-3.8-0.5-5.4-1.3c0.8,0.2,1.6,0.3,2.4,0.3C22.9,28.4,28,23.3,28,17S22.9,5.6,16.6,5.6
	c-0.8,0-1.6,0.1-2.4,0.3c1.6-0.8,3.5-1.3,5.4-1.3C26.4,4.6,32,10.2,32,17C32,23.8,26.4,29.4,19.6,29.4z M16.6,7.6
	c5.2,0,9.4,4.2,9.4,9.4c0,5.2-4.2,9.4-9.4,9.4S7.2,22.2,7.2,17C7.2,11.8,11.4,7.6,16.6,7.6z M2,17C2,8.7,8.7,2,17,2
	c1.7,0,3.2,0.3,4.7,0.8c-0.7-0.1-1.4-0.2-2.1-0.2C11.7,2.6,5.2,9.1,5.2,17c0,7.9,6.5,14.4,14.4,14.4c0.7,0,1.4-0.1,2.1-0.2
	C20.2,31.7,18.7,32,17,32C8.7,32,2,25.3,2,17z"/>
</svg>
